<svg xmlns="http://www.w3.org/2000/svg" width="39.864" height="50.275" viewBox="0 0 39.864 50.275">
  <g id="document-svgrepo-com" transform="translate(-7.314 -4)">
    <path id="Trazado_4361" data-name="Trazado 4361" d="M14.766,16.694a1.285,1.285,0,0,0,1.284,1.282H35.811a1.283,1.283,0,1,0,0-2.566H16.05A1.285,1.285,0,0,0,14.766,16.694Z" transform="translate(4.256 6.516)" fill="#2660a3"/>
    <path id="Trazado_4362" data-name="Trazado 4362" d="M46.834,13.791,37.4,4.344a1.133,1.133,0,0,0-.8-.344h-21.5A1.11,1.11,0,0,0,14,5.109V46.769a1.113,1.113,0,0,0,1.109,1.09H38.292v4.218H9.534V12.616h4.357v-2.2H8.423a1.111,1.111,0,0,0-1.109,1.111V53.185a1.112,1.112,0,0,0,1.109,1.09h30.96a1.113,1.113,0,0,0,1.109-1.09V47.859h5.576a1.113,1.113,0,0,0,1.109-1.09v-32.2A1.03,1.03,0,0,0,46.834,13.791ZM37.715,7.76l5.7,5.722h-5.7V7.76Zm7.262,37.9H16.217V6.2H35.5v8.374a1.109,1.109,0,0,0,1.109,1.108h8.369v29.98Z" fill="#2660a3"/>
    <path id="Trazado_4363" data-name="Trazado 4363" d="M35.811,19.041H16.05a1.283,1.283,0,1,0,0,2.566H35.811a1.283,1.283,0,1,0,0-2.566Z" transform="translate(4.256 8.59)" fill="#2660a3"/>
    <path id="Trazado_4364" data-name="Trazado 4364" d="M35.811,22.672H16.05a1.282,1.282,0,1,0,0,2.564H35.811a1.282,1.282,0,1,0,0-2.564Z" transform="translate(4.256 10.664)" fill="#2660a3"/>
    <path id="Trazado_4365" data-name="Trazado 4365" d="M12.065,19.5h-.27a1.284,1.284,0,1,0,0,2.567h.27Z" transform="translate(1.826 8.849)" fill="#2660a3"/>
    <path id="Trazado_4366" data-name="Trazado 4366" d="M12.065,23.125h-.27a1.284,1.284,0,1,0,0,2.567h.27Z" transform="translate(1.826 10.922)" fill="#2660a3"/>
    <path id="Trazado_4367" data-name="Trazado 4367" d="M10.511,28.04a1.285,1.285,0,0,0,1.284,1.282h.27V26.755h-.27A1.288,1.288,0,0,0,10.511,28.04Z" transform="translate(1.826 12.996)" fill="#2660a3"/>
  </g>
</svg>
