<svg xmlns="http://www.w3.org/2000/svg" width="50" height="53.317" viewBox="0 0 50 53.317">
  <g id="stats-svgrepo-com" transform="translate(-26.3 -11)">
    <g id="Grupo_3603" data-name="Grupo 3603" transform="translate(26.3 11)">
      <path id="Trazado_4353" data-name="Trazado 4353" d="M101.708,183.062a9.055,9.055,0,0,0,5.517-1.872,1.145,1.145,0,0,0,.109-1.7l-5.549-5.571v-7.867a1.123,1.123,0,0,0-1.284-1.121,9.1,9.1,0,0,0,1.208,18.128Zm-2.2-15.582v6.464a2.189,2.189,0,0,0,.642,1.556l4.57,4.57a6.719,6.719,0,0,1-3.025.707,6.827,6.827,0,0,1-2.187-13.3Z" transform="translate(-85.386 -148.176)" fill="#2660a3"/>
      <path id="Trazado_4354" data-name="Trazado 4354" d="M195.815,166.873a1.149,1.149,0,0,0,1.7-.109,8.987,8.987,0,0,0,1.872-5.517,9.131,9.131,0,0,0-7.9-9.021,1.127,1.127,0,0,0-1.284,1.121V160.8a1.128,1.128,0,0,0,.337.805Zm-3.33-12.1a6.855,6.855,0,0,1,4.646,6.464,6.719,6.719,0,0,1-.707,3.025l-3.928-3.928v-5.56Z" transform="translate(-172.365 -136.851)" fill="#2660a3"/>
      <path id="Trazado_4355" data-name="Trazado 4355" d="M70.968,11H31.621a5.32,5.32,0,0,0-2.427,10.054V51.729a1.131,1.131,0,0,0,1.132,1.132H50.174v4.026l-5.5,5.5a1.131,1.131,0,0,0,1.6,1.6l5.027-5.027,5.027,5.027a1.131,1.131,0,0,0,1.6-1.6l-5.5-5.5V52.861H72.285a1.131,1.131,0,0,0,1.132-1.132V21.054A5.323,5.323,0,0,0,70.968,11Zm.174,39.6h-39.7V21.653h39.7Zm-.174-31.219H31.621a3.058,3.058,0,0,1,0-6.115H70.979a3.058,3.058,0,1,1-.011,6.115Z" transform="translate(-26.3 -11)" fill="#2660a3"/>
      <path id="Trazado_4356" data-name="Trazado 4356" d="M399.73,174.929a1.131,1.131,0,0,0,1.132-1.132V157.432a1.132,1.132,0,1,0-2.263,0V173.8A1.117,1.117,0,0,0,399.73,174.929Z" transform="translate(-358.087 -140.489)" fill="#2660a3"/>
      <path id="Trazado_4357" data-name="Trazado 4357" d="M354.332,207.012a1.131,1.131,0,0,0,1.132-1.132V193.432a1.132,1.132,0,0,0-2.263,0V205.88A1.131,1.131,0,0,0,354.332,207.012Z" transform="translate(-317.629 -172.572)" fill="#2660a3"/>
      <path id="Trazado_4358" data-name="Trazado 4358" d="M309.032,231.43a1.131,1.131,0,0,0,1.132-1.132v-9.467a1.132,1.132,0,0,0-2.263,0V230.3A1.131,1.131,0,0,0,309.032,231.43Z" transform="translate(-277.258 -196.991)" fill="#2660a3"/>
    </g>
  </g>
</svg>
