<?xml version="1.0" standalone="no"?>
<!DOCTYPE svg PUBLIC "-//W3C//DTD SVG 20010904//EN"
 "http://www.w3.org/TR/2001/REC-SVG-20010904/DTD/svg10.dtd">
<svg version="1.0" xmlns="http://www.w3.org/2000/svg"
 width="22.000000pt" height="23.000000pt" viewBox="0 0 22.000000 23.000000"
 preserveAspectRatio="xMidYMid meet">

<g transform="translate(0.000000,23.000000) scale(0.100000,-0.100000)"
fill="#000000" stroke="none">
<path d="M11 216 c-7 -8 -10 -24 -6 -36 5 -16 15 -20 46 -20 43 0 60 20 42 49
-13 22 -66 26 -82 7z m74 -21 c0 -15 -8 -21 -29 -23 -33 -4 -51 10 -42 33 9
25 71 16 71 -10z"/>
<path d="M124 216 c-3 -7 -4 -38 -2 -67 l3 -54 40 0 40 0 3 59 c2 41 -1 62
-10 67 -21 14 -68 10 -74 -5z m74 -58 l3 -58 -36 0 -35 0 0 53 c0 62 5 69 40
65 23 -3 25 -7 28 -60z"/>
<path d="M5 117 c-10 -40 -1 -100 15 -104 12 -4 12 -3 2 5 -9 6 -12 26 -10 58
3 49 3 49 38 49 35 0 35 0 38 -49 2 -32 -1 -52 -10 -58 -10 -7 -10 -9 2 -5 11
3 15 19 15 63 l0 59 -42 3 c-38 3 -43 0 -48 -21z"/>
<path d="M120 41 c0 -17 4 -31 9 -31 4 0 6 11 3 25 -4 23 -1 25 33 25 34 0 37
-2 33 -25 -3 -14 -1 -25 4 -25 5 0 8 12 6 28 -3 24 -7 27 -45 30 -42 3 -43 2
-43 -27z"/>
</g>
</svg>
